<svg xmlns="http://www.w3.org/2000/svg" width="82" height="25" viewBox="0 0 82 25">
    <g fill="none" fill-rule="evenodd">
        <path fill="#0A2239" d="M80.39 18.058c0 .375.317.692.692.692a.708.708 0 0 0 .72-.692V5.308c0-.404-.316-.693-.72-.693a.683.683 0 0 0-.693.693v12.75zm0-16.702c0 .404.317.75.692.75.404 0 .72-.346.72-.75V.692a.708.708 0 0 0-.72-.692.702.702 0 0 0-.693.692v.664zM.346 16.73c1.154.924 2.942 1.991 5.221 2.02 1.385 0 2.539-.404 3.52-1.125.951-.721 1.615-1.673 1.615-2.856 0-1.182-.664-2.279-1.587-2.884a9.826 9.826 0 0 0-3.432-1.154h-.058c-1.298-.202-2.25-.548-2.885-.981-.548-.433-.807-.837-.807-1.413 0-.577.317-1.154.894-1.616.606-.49 1.529-.808 2.683-.808 1.384 0 2.423.722 3.461 1.414.317.202.75.115.952-.202a.734.734 0 0 0-.202-.98c-1.096-.693-2.394-1.53-4.211-1.53-1.443 0-2.625.375-3.462.952C1.154 6.231.52 7.212.52 8.337c0 1.096.635 2.019 1.53 2.538.807.577 1.932.865 3.201 1.096l.058.029c1.384.23 2.394.577 3 1.038.72.606.98 1.068 1.01 1.731 0 .635-.376 1.27-1.068 1.731-.635.52-1.587.865-2.683.865-1.788 0-3.346-.923-4.327-1.644a.687.687 0 0 0-.98.087c-.231.288-.202.663.086.923zM13.74 23.971V5.308a.708.708 0 0 1 1.413 0v2.048c1.212-1.644 3.174-2.74 5.366-2.74 3.808 0 6.837 3.144 6.837 7.009 0 3.837-3.03 7.038-6.837 7.038-2.192 0-4.154-1.096-5.365-2.769v8.077a.708.708 0 0 1-.721.692.702.702 0 0 1-.693-.692zm1.414-12.577v.231c0 3.115 2.452 5.625 5.365 5.654 3-.029 5.423-2.539 5.423-5.654 0-3.115-2.423-5.596-5.423-5.596-2.856 0-5.25 2.365-5.365 5.365zM30.087 18.058c0 .404.317.692.72.692a.678.678 0 0 0 .664-.692v-6.202c0-.058 0-.116.058-.231.202-.577.75-2.02 1.702-3.288.98-1.27 2.25-2.308 4.096-2.308a.702.702 0 0 0 .692-.692.683.683 0 0 0-.692-.693c-2.712 0-4.587 1.789-5.654 3.462-.086.115-.144.23-.202.346V5.337a.678.678 0 0 0-.663-.693c-.404 0-.721.289-.721.693v12.72zM53.27 4.615c.374 0 .692.289.692.693v12.75a.702.702 0 0 1-.693.692.702.702 0 0 1-.692-.692v-2.106c-1.212 1.673-3.144 2.798-5.308 2.798-3.72 0-6.692-3.202-6.692-7.067 0-3.866 2.971-7.068 6.692-7.068 2.164 0 4.096 1.097 5.308 2.77V5.308c0-.404.317-.693.692-.693zm-6 12.75c2.913 0 5.307-2.51 5.307-5.682 0-3.173-2.394-5.712-5.308-5.712-2.884 0-5.307 2.539-5.307 5.712 0 3.173 2.423 5.682 5.307 5.682z"/>
        <g fill-rule="nonzero" transform="translate(56.73 3.846)">
            <path fill="#0A2239" d="M9.437 2.423c-2.906 0-5.313 2.009-5.69 4.605H0v1.519h3.759c.42 2.552 2.806 4.512 5.678 4.512 3.166 0 5.743-2.385 5.743-5.318 0-2.932-2.577-5.318-5.743-5.318zm0 9.117c-2.266 0-4.103-1.7-4.103-3.799 0-2.098 1.837-3.798 4.103-3.798s4.102 1.7 4.102 3.798-1.836 3.799-4.102 3.799z"/>
            <path fill="#0A2239" d="M20.513 7.028H17.71C17.346 3.096 13.775 0 9.437 0h-.001v1.52c3.683 0 6.667 2.763 6.667 6.172 0 3.41-2.984 6.173-6.666 6.173h-.001v1.52c4.27 0 7.795-2.997 8.256-6.838h2.82v-1.52z"/>
            <ellipse cx="9.436" cy="7.619" fill="#46B2E2" rx="2.462" ry="2.279"/>
        </g>
    </g>
</svg>
