<svg xmlns="http://www.w3.org/2000/svg" width="40" height="27" viewBox="0 0 40 27">
    <g fill="#172E43" fill-opacity=".7" fill-rule="nonzero">
        <path d="M34.593 13.871V3.234C34.593 1.45 33.121 0 31.313 0H3.28C1.472 0 0 1.45 0 3.234v14.892c0 1.783 1.472 3.234 3.28 3.234h23.352c.486 3.186 3.276 5.64 6.642 5.64C36.983 27 40 24.026 40 20.37c0-3.21-2.328-5.893-5.407-6.499zM3.28 1.98h28.033c.702 0 1.272.563 1.272 1.255V4.8H2.008V3.234c0-.692.57-1.255 1.272-1.255zM2.008 18.126V9.848h30.577v3.927c-3.053.308-5.5 2.64-5.953 5.606H3.28a1.265 1.265 0 0 1-1.272-1.255zm31.266 6.895c-2.602 0-4.718-2.086-4.718-4.65 0-2.565 2.116-4.651 4.718-4.651s4.719 2.086 4.719 4.65c0 2.565-2.117 4.65-4.72 4.65z"/>
        <path d="M34.989 19.989h-.978v-.978a1.011 1.011 0 1 0-2.022 0v.978h-.978a1.011 1.011 0 1 0 0 2.022h.978v.978a1.011 1.011 0 0 0 2.022 0v-.978h.978a1.011 1.011 0 0 0 0-2.022z"/>
    </g>
</svg>
