<svg xmlns="http://www.w3.org/2000/svg" width="25" height="30" viewBox="0 0 25 30">
    <path fill="#FFF" fill-rule="nonzero" d="M23.586 20.556c-.79-.719-2.18-2.58-2.381-4.994-.05-.616-.095-1.216-.138-1.797-.27-3.668-.483-6.565-1.907-8.727-1.232-1.872-2.702-2.913-4.726-3.299C14.178.787 13.408.093 12.5.093c-.908 0-1.678.694-1.935 1.647-2.022.386-3.493 1.427-4.725 3.298-1.423 2.164-1.638 5.065-1.909 8.739-.043.578-.086 1.173-.137 1.786-.198 2.416-1.588 4.275-2.379 4.993-1.025.932-1.178 2.405-1.178 3.2 0 .46.373.833.833.833h8.508v1.562a2.925 2.925 0 0 0 2.922 2.923c1.61 0 2.922-1.311 2.922-2.923V24.59h8.507c.46 0 .834-.374.834-.834 0-.972-.205-2.315-1.177-3.2zm-9.83 5.595c0 .692-.563 1.256-1.256 1.256a1.257 1.257 0 0 1-1.255-1.256v-1.563h2.51v1.563zM1.981 22.92c.08-.407.24-.846.555-1.132.268-.243 2.623-2.479 2.919-6.09.05-.617.095-1.217.138-1.8.253-3.432.454-6.143 1.638-7.944 1.273-1.931 2.732-2.695 5.204-2.726h.132c2.472.03 3.93.795 5.2 2.726 1.186 1.8 1.385 4.506 1.638 7.932.043.587.087 1.191.139 1.813.3 3.61 2.653 5.846 2.92 6.09.314.285.473.725.553 1.133H1.982v-.001z"/>
</svg>
