<?xml version="1.0" encoding="UTF-8"?>
<svg width="22px" height="25px" viewBox="0 0 22 25" version="1.1" xmlns="http://www.w3.org/2000/svg" xmlns:xlink="http://www.w3.org/1999/xlink">
    <!-- Generator: Sketch 47.1 (45422) - http://www.bohemiancoding.com/sketch -->
    <title>noun_1272513</title>
    <desc>Created with Sketch.</desc>
    <defs></defs>
    <g id="Symbols" stroke="none" stroke-width="1" fill="none" fill-rule="evenodd">
        <g id="nav-0" transform="translate(-933.000000, -56.000000)" fill-rule="nonzero" fill="#CCDADF">
            <g id="Group-5">
                <g id="Group-7" transform="translate(793.000000, 52.000000)">
                    <g id="noun_1272513" transform="translate(140.000000, 4.000000)">
                        <path d="M8.70535714,3.15481804 C5.23949888,4.04644821 2.67857143,7.19140098 2.67857143,10.9371649 L2.67857143,16.2938646 C2.67857143,16.7874058 2.27756223,17.1875 1.78664594,17.1875 C0.799908616,17.1875 0,17.9889983 0,18.9732143 C0,19.9594371 0.800916295,20.7589286 1.79013089,20.7589286 L19.6384405,20.7589286 C20.6271025,20.7589286 21.4285714,19.9574303 21.4285714,18.9732143 C21.4285714,17.9869915 20.6249117,17.1875 19.6419255,17.1875 C19.1493287,17.1875 18.75,16.7905082 18.75,16.2938646 L18.75,10.9371649 C18.75,7.19288348 16.1896067,4.04675125 12.7232143,3.15485147 L12.7232143,2.23252397 C12.7232143,1.12019991 11.8237863,0.223214286 10.7142857,0.223214286 C9.60704272,0.223214286 8.70535714,1.12281286 8.70535714,2.23252397 L8.70535714,3.15481804 Z M7.58928571,21.6517857 L13.8392857,21.6517857 C13.8392857,23.3776755 12.4401755,24.7767857 10.7142857,24.7767857 C8.98839589,24.7767857 7.58928571,23.3776755 7.58928571,21.6517857 Z" id="Shape"></path>
                    </g>
                </g>
            </g>
        </g>
    </g>
</svg>