<svg xmlns="http://www.w3.org/2000/svg" width="106" height="22" viewBox="0 0 106 22">
    <g fill="none" fill-rule="nonzero">
        <path fill="#4361C3" d="M1.25 0h27.5C29.438 0 30 .53 30 1.176v17.648C30 19.47 29.437 20 28.75 20H1.25C.562 20 0 19.47 0 18.824V1.176C0 .53.563 0 1.25 0z"/>
        <path fill="#FFAF38" d="M18.594 6.25c2.5 0 4.531 2.031 4.531 4.531 0 2.5-2.031 4.531-4.531 4.531a4.535 4.535 0 0 1-4.532-4.53c0-2.5 2.032-4.532 4.532-4.532z"/>
        <path fill="#FFAF38" d="M14.688 8.438h3.125v1h-3.125z"/>
        <path fill="#EB3636" d="M11.406 15.313a4.535 4.535 0 0 1-4.531-4.532c0-2.5 2.031-4.531 4.531-4.531 2.5 0 4.531 2.031 4.531 4.531 0 2.5-2.03 4.531-4.53 4.531z"/>
        <path fill="#FFAF38" d="M14.688 12.813v-.626h4.062v.626h-4.063zm0-4.376h4.062v.626h-4.063v-.626zm3.75 1.876h-4.063v-.626h4.063v.626zm0 1.25h-4.063v-.626h4.063v.626z"/>
        <path fill="#FFF" d="M1.25 21.25h.563L30 1.812V1.25C30 .562 29.437 0 28.75 0H1.25C.562 0 0 .563 0 1.25V20c0 .688.563 1.25 1.25 1.25z" opacity=".05"/>
        <g>
            <path fill="#F9F9F9" d="M38 5.294h30v9.412H38z"/>
            <path fill="#09599E" d="M39.25 0h27.5C67.438 0 68 .53 68 1.176v4.118H38V1.176C38 .53 38.563 0 39.25 0z"/>
            <path fill="#E59703" d="M38 14.706h30v4.118C68 19.47 67.437 20 66.75 20h-27.5c-.688 0-1.25-.53-1.25-1.176v-4.118z"/>
            <path fill="#FFF" d="M39.25 19.97c-.688 0-1.25-.529-1.25-1.176V1.176C38 .53 38.563 0 39.25 0h27.5C67.438 0 68 .53 68 1.176" opacity=".05"/>
            <path fill="#00589F" d="M49.594 12.47L50.5 7.5h1.438l-.907 4.97zM56.25 7.647a4.188 4.188 0 0 0-1.281-.206c-1.438 0-2.438.677-2.438 1.647 0 .706.719 1.118 1.25 1.353.563.235.75.412.75.618 0 .323-.437.5-.875.5-.562 0-.875-.088-1.343-.265l-.188-.118-.188 1.118c.344.147.97.265 1.594.265 1.5 0 2.5-.677 2.5-1.706 0-.559-.375-1-1.218-1.353-.5-.235-.813-.382-.813-.618 0-.206.25-.44.813-.44.468 0 .812.087 1.062.176l.125.058.25-1.029M59.938 7.53h-1.126c-.343 0-.593.088-.75.411L55.938 12.5h1.5s.25-.618.312-.735h1.844c.031.176.187.735.187.735h1.344l-1.188-4.97zm-1.782 3.176c.125-.294.563-1.382.563-1.382s.125-.295.187-.471l.094.441.344 1.441h-1.188v-.03zM48.375 7.53l-1.406 3.382-.157-.677c-.25-.794-1.093-1.647-2-2.088l1.313 4.324h1.531L49.938 7.5h-1.563"/>
            <path fill="#F9A51A" d="M45.656 7.5h-2.312l-.032.118c1.813.411 3 1.411 3.5 2.588l-.5-2.265c-.062-.323-.343-.412-.656-.441"/>
        </g>
        <g>
            <path fill="#2AA0D0" d="M77.25 0h27.5c.688 0 1.25.53 1.25 1.176v17.648c0 .647-.563 1.176-1.25 1.176h-27.5c-.688 0-1.25-.53-1.25-1.176V1.176C76 .53 76.563 0 77.25 0z"/>
            <path fill="#2AA0D0" d="M96.625 7.647h-3.75c-.156 0-.313.118-.313.265 0-.147-.156-.265-.312-.265h-1.813c-.124 0-.25.059-.28.177l-1 2.352-1.25-2.382c-.063-.088-.157-.176-.282-.176H86c-.188 0-.313.117-.313.294v2.764l-1.374-2.882c-.063-.118-.157-.176-.282-.176h-1.656c-.125 0-.219.058-.281.176l-2.156 4.412a.33.33 0 0 0 .03.294c.063.088.157.147.25.147h1.344c.126 0 .25-.059.282-.176l.469-1h1.718l.438 1c.062.117.156.176.281.176h2.5c.188 0 .313-.118.313-.294v-1.677l.78 1.795c.063.117.157.176.282.176h.969c.125 0 .25-.059.281-.176l.813-1.824v1.706c0 .176.124.294.312.294h1.25c.156 0 .313-.118.313-.265 0 .147.156.265.312.265h3.75c.188 0 .313-.118.313-.294v-.882c0-.177-.126-.295-.313-.295h-2.188v-.294h2.126c.187 0 .312-.117.312-.294v-.882c0-.177-.125-.294-.313-.294h-2.124v-.294h2.187c.188 0 .313-.118.313-.294V7.94c0-.147-.157-.294-.313-.294zM82.906 10l.281-.588.282.588h-.563z"/>
            <path fill="#2AA0D0" d="M101.844 11.441l-1.25-1.265 1.25-1.264a.26.26 0 0 0 .094-.206V7.94a.26.26 0 0 0-.094-.206.292.292 0 0 0-.219-.088h-.844a.368.368 0 0 0-.25.088l-1.094 1.236-1.124-1.206c-.063-.089-.126-.118-.22-.118h-.843c-.188 0-.313.118-.313.294v4.412c0 .176.126.294.313.294H98c.094 0 .156-.03.219-.088l1.187-1.177 1.188 1.177a.349.349 0 0 0 .219.088h.812c.094 0 .156-.03.219-.088a.26.26 0 0 0 .094-.206v-.706a.26.26 0 0 0-.094-.206zm-4.281-.559v-1.44l.718.705-.719.735z"/>
            <path fill="#FFF" d="M82.438 10.294h1.5l-.75-1.588zM97.25 11.647l1.469-1.47-1.469-1.471z"/>
            <path fill="#FFF" d="M102.094 11.235l-1.063-1.059 1.063-1.058a.677.677 0 0 0 .156-.412V7.94a.565.565 0 0 0-.188-.412.636.636 0 0 0-.437-.176h-.844a.577.577 0 0 0-.469.206l-.874.941-.876-.941a.682.682 0 0 0-.468-.206h-.844a.552.552 0 0 0-.313.088.552.552 0 0 0-.312-.088h-3.75a.552.552 0 0 0-.313.088.552.552 0 0 0-.312-.088h-1.813c-.25 0-.5.147-.593.382l-.75 1.765-.938-1.794c-.094-.206-.312-.324-.562-.324H86c-.344 0-.625.265-.625.589v1.382l-.781-1.618a.619.619 0 0 0-.563-.353h-1.656a.619.619 0 0 0-.563.353l-2.156 4.412c-.094.177-.062.382.031.559a.625.625 0 0 0 .532.265h1.344c.25 0 .468-.147.562-.353l.375-.824h1.313l.343.824c.094.235.313.382.594.382h2.5c.344 0 .625-.265.625-.588v-.206l.188.441a.619.619 0 0 0 .562.353h.969c.25 0 .469-.147.594-.353l.187-.441v.147c0 .323.281.588.625.588h1.25c.125 0 .219-.03.313-.088a.552.552 0 0 0 .312.088h3.75c.125 0 .219-.03.313-.088a.552.552 0 0 0 .312.088H98a.713.713 0 0 0 .469-.176l.969-.97.968.97a.657.657 0 0 0 .469.176h.75a.636.636 0 0 0 .438-.176.565.565 0 0 0 .187-.412v-.706a.677.677 0 0 0-.156-.412zm-9.844 1.118H91V9.147l-1.406 3.206h-.969L87.25 9.176v3.177h-2.5l-.5-1.177h-2.125l-.531 1.177H80.25l2.156-4.412h1.656l1.97 4.118V7.94h1.593l1.563 2.97 1.25-2.97h1.812v4.412zm4.375-3.53h-2.5v.883h2.438v.882h-2.438v.883h2.5v.882h-3.75V7.94h3.75v.883zm4.25 3.53l-1.438-1.412L98 12.353h-.75V7.94h.844l1.344 1.47 1.343-1.47h.844v.765l-1.469 1.47 1.469 1.471v.706h-.75z"/>
            <path fill="#FFF" d="M77.25 20h.563L106 1.706v-.53C106 .53 105.437 0 104.75 0h-27.5C76.562 0 76 .53 76 1.176v17.648c0 .647.563 1.176 1.25 1.176z" opacity=".05"/>
        </g>
    </g>
</svg>
