<svg xmlns="http://www.w3.org/2000/svg" width="35" height="37" viewBox="0 0 35 37">
    <g fill="#FFF" fill-rule="nonzero">
        <path d="M17.205 32.388a4.149 4.149 0 1 0-8.297 0 4.149 4.149 0 0 0 8.297 0zm-5.736 0a1.588 1.588 0 1 1 3.176 0 1.588 1.588 0 0 1-3.176 0zM32.294 32.388a4.149 4.149 0 1 0-8.298 0 4.149 4.149 0 0 0 8.298 0zm-5.737 0a1.588 1.588 0 1 1 3.176 0 1.588 1.588 0 0 1-3.176 0zM2.31.265L1.907.196A1.28 1.28 0 1 0 1.48 2.72l.401.068a5.122 5.122 0 0 1 4.175 4.217l2.33 14.244a6.804 6.804 0 0 0 6.723 5.728h16.757a1.28 1.28 0 0 0 0-2.561H15.11a4.268 4.268 0 0 1-4.149-3.287h13.488c3.9.01 7.355-2.51 8.536-6.227l1.528-4.764a1.707 1.707 0 0 0-1.647-2.232H8.784L8.571 6.59A7.683 7.683 0 0 0 2.309.265zM31.717 10.47l-1.17 3.65a6.402 6.402 0 0 1-6.1 4.447H10.527l-1.324-8.11 22.516.013z"/>
    </g>
</svg>
