<?xml version="1.0" encoding="UTF-8"?>
<svg width="30px" height="30px" viewBox="0 0 30 30" version="1.1" xmlns="http://www.w3.org/2000/svg" xmlns:xlink="http://www.w3.org/1999/xlink">
    <!-- Generator: Sketch 48.2 (47327) - http://www.bohemiancoding.com/sketch -->
    <title>search</title>
    <desc>Created with Sketch.</desc>
    <defs></defs>
    <g id="SBC--Claim---Searc" stroke="none" stroke-width="1" fill="none" fill-rule="evenodd" transform="translate(-747.000000, -369.000000)">
        <g id="search" transform="translate(747.000000, 369.000000)" fill="#06BCE3" fill-rule="nonzero">
            <path d="M23.7333333,14.3666667 C23.1333333,14.3666667 22.6333333,13.8666667 22.6333333,13.2666667 C22.6333333,9.96666667 22.6333333,6.63333333 22.6333333,3.33333333 C22.6333333,2.26666667 22.5666667,2.2 21.5333333,2.2 C15.5333333,2.2 9.53333333,2.2 3.56666667,2.2 C2.96666667,2.2 2.5,2.66666667 2.5,3.26666667 C2.5,10.8666667 2.5,18.5 2.5,26.1 C2.5,27 2.63333333,27.1333333 3.53333333,27.1333333 C9.5,27.1333333 15.4666667,27.1333333 21.4333333,27.1333333 C22.0333333,27.1333333 22.5333333,27.6 22.5333333,28.2 C22.5333333,28.8 22.0333333,29.3 21.4333333,29.3 C15.6,29.3 9.16666667,29.3 3.4,29.3 C1.76666667,29.3 0.666666667,28.5333333 0.366666667,27.1666667 C0.3,26.8333333 0.3,26.5 0.3,26.1666667 C0.3,18.6 0.333333333,11 0.266666667,3.43333333 C0.266666667,2.26666667 0.533333333,1.33333333 1.26666667,0.7 C1.76666667,0.233333333 2.46666667,0.0333333333 3.13333333,0.0333333333 L22.0333333,0.0333333333 C22.7333333,0.0333333333 23.4,0.266666667 23.9333333,0.733333333 C24.6666667,1.4 24.9,2.36666667 24.9,3.53333333 C24.8333333,7.03333333 24.8666667,9.86666667 24.8666667,13.2333333 C24.8666667,13.8666667 24.3666667,14.3666667 23.7333333,14.3666667 Z" id="Shape"></path>
            <path d="M29.3333333,28.9333333 C28.8333333,29.4333333 28.0333333,29.4333333 27.5333333,28.9333333 C26.0666667,27.4666667 24.6,26 23.2666667,24.6333333 C22.1666667,24.8 21.2666667,25.1 20.4,25.0666667 C17.9,25 15.9,22.9333333 15.8,20.3666667 C15.7,17.8666667 17.6333333,15.7333333 20.2666667,15.4333333 C22.5666667,15.1666667 24.8666667,16.9 25.3666667,19.3 C25.5666667,20.3 25.4666667,21.3 25.0333333,22.2 C24.8666667,22.5333333 24.9333333,22.7 25.1666667,22.9666667 C26.5666667,24.3333333 27.9333333,25.7333333 29.3333333,27.1 C29.8333333,27.6333333 29.8333333,28.4333333 29.3333333,28.9333333 Z M20.6,23.1 C22.2333333,23.1 23.4666667,21.9 23.5,20.3 C23.5,18.7 22.2666667,17.4333333 20.7,17.4333333 C19.1,17.4333333 17.8333333,18.6666667 17.8,20.2333333 C17.7666667,21.8333333 18.9666667,23.1 20.6,23.1 Z" id="Shape"></path>
            <path d="M18.1333333,12.8 C18.1333333,13.5333333 18.1333333,14.2333333 18.1333333,14.9666667 C13.6,14.9666667 9.06666667,14.9666667 4.5,14.9666667 C4.5,14.2666667 4.5,13.5666667 4.5,12.8 C9,12.8 13.5333333,12.8 18.1333333,12.8 Z" id="Shape"></path>
            <path d="M4.46666667,8.7 C4.46666667,8 4.46666667,7.3 4.46666667,6.53333333 C9,6.53333333 13.5333333,6.53333333 18.1,6.53333333 C18.1,7.23333333 18.1,7.93333333 18.1,8.7 C13.6,8.7 9.06666667,8.7 4.46666667,8.7 Z" id="Shape"></path>
        </g>
    </g>
</svg>