<svg xmlns="http://www.w3.org/2000/svg" width="30" height="37" viewBox="0 0 30 37">
    <path fill="#FFF" fill-rule="nonzero" d="M14.927 36.736c-.16 0-.319-.03-.471-.095-.009-.003-.017-.007-.026-.008C4.742 32.837.032 28.138.032 22.267v-18a1.232 1.232 0 0 1 1.48-1.207c1.546.316 3.615.336 5.68.046 3.435-.482 5.9-1.631 6.836-2.563.359-.37.816-.47 1.374-.298.175.073.325.182.447.317.95.929 3.404 2.065 6.817 2.544 2.063.29 4.135.271 5.678-.046a1.236 1.236 0 0 1 1.48 1.207v18c0 5.874-4.714 10.573-14.409 14.37a1.207 1.207 0 0 1-.489.1c-.157-.001.063-.001 0-.001-.157 0 .063 0 0 0zM2.497 5.694v16.572c0 4.666 4.067 8.564 12.431 11.909 8.365-3.346 12.431-7.243 12.431-11.91V5.696c-1.524.148-3.275.1-5.037-.147-3.005-.423-5.71-1.372-7.394-2.562-1.685 1.19-4.39 2.14-7.393 2.561-1.761.248-3.512.298-5.038.147z"/>
</svg>
