<svg xmlns="http://www.w3.org/2000/svg" width="25" height="19" viewBox="0 0 25 19">
    <g fill="#FFF" fill-rule="nonzero">
        <path d="M15.296 6.95l-2.459 3.98a2.202 2.202 0 0 0-.34-.029 2.29 2.29 0 1 0 0 4.582 2.291 2.291 0 0 0 1.411-4.093l1.833-4.207-.445-.233z"/>
        <path d="M12.497.184C5.637.184.077 5.744.077 12.602c0 2.327.643 4.503 1.756 6.364.273-.402.571-.784.888-1.153a10.856 10.856 0 0 1-.942-3.774l1.809-.24c-.003-.078-.006-.155-.006-.232 0-.327.019-.648.053-.965H1.781c.095-1.454.473-2.83 1.081-4.071l1.809.765c.18-.33.382-.645.601-.948L3.548 7.33a10.864 10.864 0 0 1 2.805-2.893l1.26 1.673c.293-.192.598-.367.914-.524L7.48 3.742a10.593 10.593 0 0 1 3.723-1.173l.274 2.143c.334-.038.674-.06 1.02-.06V2.488c1.346 0 2.632.252 3.82.708l-.806 1.98c.328.119.647.256.955.41l1.047-1.844a10.801 10.801 0 0 1 3.11 2.5L19.02 7.496c.251.269.484.553.7.852l1.725-1.018a10.84 10.84 0 0 1 1.584 3.86l-1.876.25c.093.378.162.766.204 1.162h1.855a10.87 10.87 0 0 1-.939 5.213c.316.367.613.75.886 1.151a12.354 12.354 0 0 0 1.756-6.364c0-6.859-5.56-12.418-12.42-12.418z"/>
    </g>
</svg>
