<?xml version="1.0" encoding="UTF-8"?>
<svg width="30px" height="31px" viewBox="0 0 30 31" version="1.1" xmlns="http://www.w3.org/2000/svg" xmlns:xlink="http://www.w3.org/1999/xlink">
    <!-- Generator: Sketch 48.2 (47327) - http://www.bohemiancoding.com/sketch -->
    <title>calendar</title>
    <desc>Created with Sketch.</desc>
    <defs></defs>
    <g id="SBC--Claim---Searc" stroke="none" stroke-width="1" fill="none" fill-rule="evenodd" transform="translate(-673.000000, -369.000000)" fill-opacity="0.5">
        <g id="Group-2" transform="translate(212.000000, 324.000000)" fill="#000000" fill-rule="nonzero">
            <g id="Group-7" transform="translate(12.000000, 28.000000)">
                <g id="Group" transform="translate(264.000000, 0.000000)">
                    <g id="calendar" transform="translate(185.000000, 17.000000)">
                        <path d="M9.57142857,23 L5.75,23 C5.17857143,23 4.71428571,23.4642857 4.71428571,24.0357143 C4.71428571,24.6071429 5.17857143,25.0714286 5.75,25.0714286 L9.57142857,25.0714286 C10.1428571,25.0714286 10.6071429,24.6071429 10.6071429,24.0357143 C10.6071429,23.4642857 10.1428571,23 9.57142857,23 Z" id="Shape"></path>
                        <path d="M4.71428571,19.2142857 C4.71428571,19.7857143 5.17857143,20.25 5.75,20.25 L9.57142857,20.25 C10.1428571,20.25 10.6071429,19.7857143 10.6071429,19.2142857 C10.6071429,18.6428571 10.1428571,18.1785714 9.57142857,18.1785714 L5.75,18.1785714 C5.17857143,18.1785714 4.71428571,18.6428571 4.71428571,19.2142857 Z" id="Shape"></path>
                        <path d="M12.0357143,14.3928571 C12.0357143,14.9642857 12.5,15.4285714 13.0714286,15.4285714 L16.8928571,15.4285714 C17.4642857,15.4285714 17.9285714,14.9642857 17.9285714,14.3928571 C17.9285714,13.8214286 17.4642857,13.3571429 16.8928571,13.3571429 L13.0714286,13.3571429 C12.5,13.3571429 12.0357143,13.8214286 12.0357143,14.3928571 Z" id="Shape"></path>
                        <path d="M16.9285714,23 L13.0714286,23 C12.5,23 12.0357143,23.4642857 12.0357143,24.0357143 C12.0357143,24.6071429 12.5,25.0714286 13.0714286,25.0714286 L16.8928571,25.0714286 C17.4642857,25.0714286 17.9285714,24.6071429 17.9285714,24.0357143 C17.9285714,23.4642857 17.5,23 16.9285714,23 Z" id="Shape"></path>
                        <path d="M16.9285714,18.1785714 L13.0714286,18.1785714 C12.5,18.1785714 12.0357143,18.6428571 12.0357143,19.2142857 C12.0357143,19.7857143 12.5,20.25 13.0714286,20.25 L16.8928571,20.25 C17.4642857,20.25 17.9285714,19.7857143 17.9285714,19.2142857 C17.9285714,18.6428571 17.5,18.1785714 16.9285714,18.1785714 Z" id="Shape"></path>
                        <path d="M19.3928571,14.3928571 C19.3928571,14.9642857 19.8571429,15.4285714 20.4285714,15.4285714 L24.25,15.4285714 C24.8214286,15.4285714 25.2857143,14.9642857 25.2857143,14.3928571 C25.2857143,13.8214286 24.8214286,13.3571429 24.25,13.3571429 L20.4285714,13.3571429 C19.8571429,13.3571429 19.3928571,13.8214286 19.3928571,14.3928571 Z" id="Shape"></path>
                        <path d="M24.25,23 L20.4285714,23 C19.8571429,23 19.3928571,23.4642857 19.3928571,24.0357143 C19.3928571,24.6071429 19.8571429,25.0714286 20.4285714,25.0714286 L24.25,25.0714286 C24.8214286,25.0714286 25.2857143,24.6071429 25.2857143,24.0357143 C25.2857143,23.4642857 24.8214286,23 24.25,23 Z" id="Shape"></path>
                        <path d="M24.25,18.1785714 L20.4285714,18.1785714 C19.8571429,18.1785714 19.3928571,18.6428571 19.3928571,19.2142857 C19.3928571,19.7857143 19.8571429,20.25 20.4285714,20.25 L24.25,20.25 C24.8214286,20.25 25.2857143,19.7857143 25.2857143,19.2142857 C25.2857143,18.6428571 24.8214286,18.1785714 24.25,18.1785714 Z" id="Shape"></path>
                        <path d="M8,7.57142857 L8,1.10714286 C8,0.535714286 7.53571429,0.0714285714 6.96428571,0.0714285714 C6.39285714,0.0714285714 5.92857143,0.535714286 5.92857143,1.10714286 L5.92857143,7.57142857 C5.92857143,8.14285714 6.39285714,8.60714286 6.96428571,8.60714286 C7.53571429,8.60714286 8,8.14285714 8,7.57142857 Z" id="Shape"></path>
                        <path d="M24.0714286,7.57142857 L24.0714286,1.10714286 C24.0714286,0.535714286 23.6071429,0.0714285714 23.0357143,0.0714285714 C22.4642857,0.0714285714 22,0.535714286 22,1.10714286 L22,7.57142857 C22,8.14285714 22.4642857,8.60714286 23.0357143,8.60714286 C23.6071429,8.60714286 24.0714286,8.14285714 24.0714286,7.57142857 Z" id="Shape"></path>
                        <path d="M16.0357143,7.57142857 L16.0357143,1.10714286 C16.0357143,0.535714286 15.5714286,0.0714285714 15,0.0714285714 C14.4285714,0.0714285714 13.9642857,0.535714286 13.9642857,1.10714286 L13.9642857,7.57142857 C13.9642857,8.14285714 14.4285714,8.60714286 15,8.60714286 C15.5714286,8.60714286 16.0357143,8.14285714 16.0357143,7.57142857 Z" id="Shape"></path>
                        <path d="M25.8928571,4.07142857 C25.3214286,4.07142857 24.8571429,4.53571429 24.8571429,5.10714286 C24.8571429,5.67857143 25.3214286,6.14285714 25.8928571,6.14285714 C26.8928571,6.14285714 27.7142857,6.96428571 27.7142857,7.96428571 L27.7142857,26.3214286 C27.7142857,27.3214286 26.8928571,28.1428571 25.8928571,28.1428571 L4.10714286,28.1428571 C3.10714286,28.1428571 2.28571429,27.3214286 2.28571429,26.3214286 L2.28571429,7.96428571 C2.28571429,6.96428571 3.10714286,6.14285714 4.10714286,6.14285714 C4.67857143,6.14285714 5.14285714,5.67857143 5.14285714,5.10714286 C5.14285714,4.53571429 4.67857143,4.07142857 4.10714286,4.07142857 C1.96428571,4.07142857 0.214285714,5.82142857 0.214285714,7.96428571 L0.214285714,26.3214286 C0.214285714,28.4642857 1.96428571,30.2142857 4.10714286,30.2142857 L25.8928571,30.2142857 C28.0357143,30.2142857 29.7857143,28.4642857 29.7857143,26.3214286 L29.7857143,7.96428571 C29.7857143,5.82142857 28.0357143,4.07142857 25.8928571,4.07142857 Z" id="Shape"></path>
                        <path d="M11.8214286,4.07142857 L10.1428571,4.07142857 C9.57142857,4.07142857 9.10714286,4.53571429 9.10714286,5.10714286 C9.10714286,5.67857143 9.57142857,6.14285714 10.1428571,6.14285714 L11.8214286,6.14285714 C12.3928571,6.14285714 12.8571429,5.67857143 12.8571429,5.10714286 C12.8571429,4.53571429 12.3928571,4.07142857 11.8214286,4.07142857 Z" id="Shape"></path>
                        <path d="M19.8571429,4.07142857 L18.1785714,4.07142857 C17.6071429,4.07142857 17.1428571,4.53571429 17.1428571,5.10714286 C17.1428571,5.67857143 17.6071429,6.14285714 18.1785714,6.14285714 L19.8571429,6.14285714 C20.4285714,6.14285714 20.8928571,5.67857143 20.8928571,5.10714286 C20.8928571,4.53571429 20.4285714,4.07142857 19.8571429,4.07142857 Z" id="Shape"></path>
                    </g>
                </g>
            </g>
        </g>
    </g>
</svg>