<svg xmlns="http://www.w3.org/2000/svg" width="25" height="25" viewBox="0 0 25 25">
    <g fill="#FFF" fill-rule="nonzero">
        <path d="M24.68 2.763L22.24.32a.962.962 0 0 0-1.359 0l-9.096 9.09a.962.962 0 0 0-.22.342l-1.469 3.91a.962.962 0 0 0 1.237 1.238l3.91-1.465a.962.962 0 0 0 .344-.221l9.092-9.093a.962.962 0 0 0 0-1.36zm-10.302 8.942l-1.734.641.641-1.734 8.273-8.256 1.083 1.083-8.263 8.266z"/>
        <path d="M22.407 22.08v-8.298a.962.962 0 0 0-1.923 0v8.301c0 .531-.43.962-.962.962H2.92a.962.962 0 0 1-.962-.962V5.478c0-.531.43-.962.962-.962h8.298a.962.962 0 0 0 0-1.923H2.92A2.885 2.885 0 0 0 .035 5.478V22.08a2.885 2.885 0 0 0 2.885 2.885h16.602a2.885 2.885 0 0 0 2.885-2.885z"/>
    </g>
</svg>
