<?xml version="1.0" encoding="UTF-8"?>
<svg width="25px" height="25px" viewBox="0 0 25 25" version="1.1" xmlns="http://www.w3.org/2000/svg" xmlns:xlink="http://www.w3.org/1999/xlink">
    <!-- Generator: Sketch 47.1 (45422) - http://www.bohemiancoding.com/sketch -->
    <title>noun_926218</title>
    <desc>Created with Sketch.</desc>
    <defs></defs>
    <g id="Symbols" stroke="none" stroke-width="1" fill="none" fill-rule="evenodd">
        <g id="nav-0" transform="translate(-969.000000, -55.000000)" fill-rule="nonzero" fill="#000000">
            <g id="Group-5">
                <g id="Group-7" transform="translate(793.000000, 52.000000)">
                    <g id="noun_926218" transform="translate(176.000000, 3.000000)">
                        <path d="M12.5037702,0 C9.16363743,0 6.02409172,1.29917042 3.66390712,3.65991331 C1.3026645,6.02065619 0,9.16051872 0,12.499966 C0,15.839391 1.2995805,18.9792536 3.66183611,21.3399514 C6.0209627,23.7006945 9.16147638,25 12.5016092,25 C15.8419887,24.9995499 18.9806925,23.6991191 21.3434659,21.3377908 C26.2188447,16.4645683 26.2188447,8.53423868 21.3434659,3.65991331 C18.9843843,1.30022821 15.8428441,0 12.5037702,0 Z M12.5015192,2.12291986 L12.5037702,2.12291986 C15.276941,2.12291986 17.8833505,3.20245228 19.8421872,5.16087432 C23.8883746,9.2072641 23.8883746,15.7905751 19.8421872,19.8369198 C17.8801765,21.7974575 15.2715609,22.8769451 12.4994481,22.8769451 C9.72731199,22.8769451 7.12090246,21.7984703 5.16099882,19.8389904 C3.20216221,17.8795106 2.12134327,15.2725499 2.12134327,12.499966 C2.12134327,9.72735966 3.20101415,7.12141195 5.16304732,5.16087432 C7.12295095,3.20245228 9.72951806,2.12291986 12.5016092,2.12291986 L12.5015192,2.12291986 Z M12.5514485,6.5684121 C11.7307662,6.5684121 11.0109097,6.73718609 10.3950772,7.07473409 C9.77931232,7.41230459 9.31103923,7.83690657 8.98933503,8.35067811 C8.66767586,8.86444966 8.50631727,9.37178443 8.50631727,9.87173694 C8.50631727,10.1137461 8.60608586,10.3388081 8.80886463,10.5468329 C9.01162089,10.7549028 9.26124498,10.8588814 9.55535073,10.8588814 C10.0554093,10.8588814 10.3950772,10.5617095 10.5755702,9.96619546 C10.7634917,9.39723894 10.99603,8.96626771 11.2699218,8.67438479 C11.5438577,8.38250188 11.9706656,8.23600902 12.5492874,8.23600902 C13.0451139,8.23600902 13.449636,8.38139908 13.7628085,8.67015363 C14.0760486,8.95992096 14.2331976,9.31549642 14.2331976,9.73687979 C14.2331976,9.95237665 14.1822103,10.1529744 14.0781646,10.3366475 C13.977293,10.5213109 13.8509389,10.6879918 13.6991025,10.8387158 C13.5494046,10.9883821 13.3062861,11.2113285 12.9686892,11.5064073 C12.585395,11.84292 12.2785706,12.1337901 12.0524479,12.3790177 C11.8262803,12.6242002 11.6437163,12.9075758 11.5067371,13.2323853 C11.3697804,13.5571948 11.3017523,13.93926 11.3017523,14.3819345 C11.3017523,14.7353944 11.3952178,15.0007875 11.5820813,15.1802069 C11.7678643,15.3596038 12.000335,15.4487509 12.274271,15.4487509 C12.80087,15.4487509 13.11411,15.1748279 13.2139237,14.627117 C13.2723396,14.3691735 13.3158983,14.1887863 13.3445548,14.0857979 C13.3732112,13.982832 13.4145864,13.8798887 13.4666317,13.7769228 C13.5186321,13.673957 13.6003919,13.5614034 13.7076341,13.4371917 C13.8148764,13.313025 13.9602972,13.1697505 14.1386966,13.0063105 C14.786292,12.4267308 15.2365113,12.0148674 15.4871034,11.7696848 C15.7355119,11.5255151 15.9509868,11.2346449 16.1335958,10.8970744 C16.3162272,10.5606067 16.4054157,10.167851 16.4054157,9.7198876 C16.4054157,9.15201138 16.2483342,8.62552383 15.928746,8.14040268 C15.6102158,7.65532654 15.1578805,7.27211347 14.5729331,6.99080847 C13.9900342,6.70952597 13.3148403,6.5684121 12.5514485,6.5684121 L12.5514485,6.5684121 Z M12.3635495,16.1674189 C12.0248495,16.1674189 11.7413239,16.2798824 11.5088081,16.50706 C11.2763149,16.7341925 11.1606076,17.0123692 11.1606076,17.3445832 C11.1606076,17.719334 11.2805695,18.0101591 11.5215718,18.2182289 C11.7604357,18.4262537 12.0418453,18.5302774 12.3635495,18.5302774 C12.6724899,18.5302774 12.9474839,18.4240931 13.1842542,18.2138852 C13.4210245,18.0037448 13.5388019,17.7139775 13.5388019,17.3445832 C13.5388019,17.0123692 13.4273276,16.7331348 13.2011599,16.50706 C12.9729213,16.2798824 12.6958563,16.1674189 12.3635495,16.1674189 Z" id="Shape"></path>
                    </g>
                </g>
            </g>
        </g>
    </g>
</svg>