<svg xmlns="http://www.w3.org/2000/svg" width="21" height="30" viewBox="0 0 21 30">
    <path fill="#FFF" fill-rule="nonzero" d="M20.754 4.946v23.332c0 .95-.778 1.698-1.712 1.698H1.712C.778 29.976 0 29.227 0 28.278V4.946c0-.95.778-1.699 1.712-1.699h2.543v1.25H1.712c-.26 0-.467.2-.467.45v23.33c0 .25.208.45.467.45h17.33c.26 0 .467-.2.467-.45V4.948c0-.25-.207-.45-.467-.45H16.5v-1.25h2.542c.934 0 1.712.75 1.712 1.7zm-4.825.65H4.825V2.498c0-.3.26-.5.52-.5h2.438A2.692 2.692 0 0 1 10.377 0c1.246 0 2.283.85 2.594 1.999h2.387a.51.51 0 0 1 .52.5v3.097h.051zm-4.825-3.348c0-.4-.312-.7-.727-.7s-.726.3-.726.7c0 .4.311.7.726.7.415.05.727-.3.727-.7zm-8.18 7.197a.546.546 0 0 1 0-.769.536.536 0 0 1 .763 0l.698.703L6.16 7.59a.536.536 0 0 1 .764 0 .546.546 0 0 1 0 .769l-2.159 2.175a.536.536 0 0 1-.763 0l-1.08-1.088zm5.778.703h8.634c.298 0 .54-.243.54-.544 0-.3-.242-.543-.54-.543H8.702a.542.542 0 0 0-.54.543c0 .3.241.544.54.544zM4.003 15.97a.536.536 0 0 0 .763 0l2.159-2.175a.546.546 0 0 0 0-.769.536.536 0 0 0-.764 0l-1.777 1.79-.697-.702a.536.536 0 0 0-.763 0 .546.546 0 0 0 0 .768l1.079 1.088zm4.699-.385h8.634c.298 0 .54-.243.54-.543 0-.3-.242-.544-.54-.544H8.702a.542.542 0 0 0-.54.544c0 .3.241.543.54.543zm-4.699 5.822a.536.536 0 0 0 .763 0l2.159-2.175a.546.546 0 0 0 0-.769.536.536 0 0 0-.764 0l-1.777 1.79-.697-.702a.536.536 0 0 0-.763 0 .546.546 0 0 0 0 .768l1.079 1.088zm4.699-.385h8.634c.298 0 .54-.243.54-.543 0-.3-.242-.544-.54-.544H8.702a.542.542 0 0 0-.54.544c0 .3.241.543.54.543zm-4.699 5.822a.536.536 0 0 0 .763 0l2.159-2.175a.546.546 0 0 0 0-.769.536.536 0 0 0-.764 0l-1.777 1.79-.697-.702a.536.536 0 0 0-.763 0 .546.546 0 0 0 0 .768l1.079 1.088zm4.699-.385h8.634c.298 0 .54-.243.54-.543 0-.3-.242-.544-.54-.544H8.702a.542.542 0 0 0-.54.544c0 .3.241.543.54.543z"/>
</svg>
