<svg xmlns="http://www.w3.org/2000/svg" width="40" height="32" viewBox="0 0 40 32">
    <g fill="#FFF" fill-rule="evenodd">
        <path d="M36.693 15.882c-.46.006-.949.116-1.43.347l-8.32 4a2.562 2.562 0 0 0-2.417-1.514l-4.777.14c-1.176 0-2.063-.276-3.18-.598-1.122-.323-2.462-.667-4.307-.667-1.517 0-3.556.45-5.222 1.014v-1.042a.852.852 0 0 0-.264-.625.853.853 0 0 0-.625-.263h-4.82a.911.911 0 0 0-.625.264.853.853 0 0 0-.263.624v13.223a.853.853 0 0 0 .264.625.912.912 0 0 0 .625.264h4.82a.853.853 0 0 0 .625-.264.852.852 0 0 0 .263-.625v-1.14c5.849-1.035 9.33.741 14.597.737 1.092 0 2.237-.536 3.667-1.278 1.43-.742 3.067-1.737 4.722-2.805 3.31-2.138 6.708-4.571 8.473-5.764a2.411 2.411 0 0 0 1.041-1.695 2.64 2.64 0 0 0-.458-1.791c-.488-.712-1.379-1.18-2.389-1.167zm.125 1.722c.4-.006.625.215.792.458.127.186.186.403.166.57-.02.167-.077.294-.277.43-1.818 1.23-5.173 3.633-8.43 5.737-1.63 1.052-3.24 2.025-4.584 2.722-1.345.697-2.51 1.083-2.848 1.083-4.767.005-8.496-1.754-14.597-.75v-.778a.802.802 0 0 0-.07-.333.914.914 0 0 0-.18-.305.909.909 0 0 0-1.278 0 .912.912 0 0 0-.18.305.84.84 0 0 0-.07.333v2.82h-.444V18.45h.444v2.82a.8.8 0 0 0 .07.333c.043.11.098.222.18.306a.908.908 0 0 0 1.278 0 .913.913 0 0 0 .18-.306.839.839 0 0 0 .07-.333v-.778c1.568-.578 3.961-1.125 5.222-1.125 1.627 0 2.713.282 3.806.597s2.215.667 3.68.667h.028l4.792-.139c.457-.012.791.351.791.68 0 .33-.312.644-.847.667l-9.125.39a.953.953 0 0 0-.347.082.838.838 0 0 0-.278.195.917.917 0 0 0-.18.305.857.857 0 0 0 .028.68c.05.107.12.214.208.293a.823.823 0 0 0 .291.166.9.9 0 0 0 .348.056l9.125-.389c.957-.04 1.862-.578 2.291-1.389l9.167-4.403c.312-.15.569-.219.778-.222z"/>
        <path d="M19.29.326a.91.91 0 0 0-.625.264.853.853 0 0 0-.264.625v1.778c-.005.002-.008.012-.013.014l-1.264-1.264a.854.854 0 0 0-.959-.194.91.91 0 0 0-.291.194L13.776 3.84a.852.852 0 0 0-.194.959.91.91 0 0 0 .194.291l1.264 1.264a.268.268 0 0 0-.014.028H13.25a.917.917 0 0 0-.348.056.853.853 0 0 0-.277.194.911.911 0 0 0-.264.625v2.958a.91.91 0 0 0 .264.639c.082.082.17.136.277.18.108.045.231.07.348.07h1.777l.014.028-1.264 1.264a.852.852 0 0 0-.194.958.91.91 0 0 0 .194.292l2.098 2.097a.874.874 0 0 0 .291.18.861.861 0 0 0 .68 0 .815.815 0 0 0 .279-.18l1.263-1.264c.006.004.008-.004.014 0v1.792a.912.912 0 0 0 .264.625.911.911 0 0 0 .625.264h2.958a.91.91 0 0 0 .639-.264.912.912 0 0 0 .195-.292.847.847 0 0 0 .055-.333v-1.792c.007-.004.021.004.028 0l1.264 1.264a.873.873 0 0 0 .291.18.86.86 0 0 0 .681 0 .814.814 0 0 0 .278-.18l2.097-2.097a.91.91 0 0 0 .194-.292.847.847 0 0 0 .056-.333.919.919 0 0 0-.056-.348.853.853 0 0 0-.194-.277l-1.264-1.264a.318.318 0 0 0 .014-.028h1.778a.859.859 0 0 0 .333-.07.872.872 0 0 0 .292-.18.91.91 0 0 0 .264-.639V7.257a.911.911 0 0 0-.264-.625.91.91 0 0 0-.292-.194.848.848 0 0 0-.333-.056h-1.778a.268.268 0 0 1-.014-.028l1.264-1.264a.912.912 0 0 0 .194-.291.849.849 0 0 0 .056-.334.919.919 0 0 0-.056-.347.854.854 0 0 0-.194-.278l-2.097-2.097a.852.852 0 0 0-.959-.194.91.91 0 0 0-.291.194l-1.264 1.264-.028-.014V1.215a.919.919 0 0 0-.055-.347.853.853 0 0 0-.195-.278.91.91 0 0 0-.639-.264H19.29zm1.486 4.223a4.21 4.21 0 0 1 4.195 4.194 4.208 4.208 0 0 1-4.195 4.195 4.209 4.209 0 0 1-4.194-4.195 4.211 4.211 0 0 1 4.194-4.194z"/>
    </g>
</svg>
