<svg xmlns="http://www.w3.org/2000/svg" width="21" height="27" viewBox="0 0 21 27">
    <g fill="#1F3549" fill-rule="nonzero">
        <path d="M16.875.078H7.488c-.084 0-.167.009-.248.026a1.23 1.23 0 0 0-.16.047l-.076.022a1.256 1.256 0 0 0-.166.088l-.05.028a1.256 1.256 0 0 0-.192.157L.446 6.593a1.256 1.256 0 0 0-.157.192c0 .015-.019.034-.028.05A1.256 1.256 0 0 0 .173 7c0 .025 0 .05-.025.076-.02.05-.035.103-.048.156a1.256 1.256 0 0 0-.025.249v15.666a3.767 3.767 0 0 0 3.768 3.767h13.029a3.767 3.767 0 0 0 3.767-3.767V3.846A3.767 3.767 0 0 0 16.875.078zM6.232 4.368v1.864H4.367l1.865-1.865zm11.899 18.786c0 .694-.562 1.256-1.256 1.256H3.845a1.256 1.256 0 0 1-1.255-1.256V8.744h3.642a2.512 2.512 0 0 0 2.512-2.512V2.59h8.131c.694 0 1.256.562 1.256 1.256v19.308z"/>
        <path d="M11.167 11.28l-.056-.04-.088-.06-.116-.063-.091-.04a1.256 1.256 0 0 0-.138-.045l-.082-.022a1.256 1.256 0 0 0-.468 0l-.085.022a1.256 1.256 0 0 0-.138.044l-.09.041-.117.063-.088.06-.056.04-3.88 3.253a1.256 1.256 0 1 0 1.613 1.924l1.818-1.525v6.907a1.256 1.256 0 0 0 2.511 0v-6.907l1.818 1.525a1.256 1.256 0 1 0 1.614-1.924l-3.88-3.253z"/>
    </g>
</svg>
