<svg xmlns="http://www.w3.org/2000/svg" width="40" height="27" viewBox="0 0 40 27">
    <g fill="#FFF" fill-rule="nonzero">
        <path d="M32.241 14.557l2.042-2.573 1.822 2.31L40 19.216h-3.895v2.82a4.257 4.257 0 0 1-4.248 4.248H4.527a4.257 4.257 0 0 1-4.25-4.249V4.407A4.257 4.257 0 0 1 4.528.158h27.33a4.257 4.257 0 0 1 4.248 4.25V6.7h-3.864V4.407a.386.386 0 0 0-.384-.389H4.527a.395.395 0 0 0-.39.39v17.628c0 .216.182.384.39.384h27.33a.38.38 0 0 0 .384-.384v-2.82h-3.683l3.683-4.659z"/>
        <path d="M22.565 12.075l5.666 8.149H16.902l.024-.029H4.895l9.594-12.979 5.907 7.985zM25.822 6.998a2.106 2.106 0 1 1 0 4.212 2.106 2.106 0 0 1 0-4.212z"/>
    </g>
</svg>
